<?xml version="1.0" encoding="UTF-8" standalone="no"?>
<svg
   xmlns:dc="http://purl.org/dc/elements/1.1/"
   xmlns:cc="http://creativecommons.org/ns#"
   xmlns:rdf="http://www.w3.org/1999/02/22-rdf-syntax-ns#"
   xmlns:svg="http://www.w3.org/2000/svg"
   xmlns="http://www.w3.org/2000/svg"
   xmlns:sodipodi="http://sodipodi.sourceforge.net/DTD/sodipodi-0.dtd"
   xmlns:inkscape="http://www.inkscape.org/namespaces/inkscape"
   sodipodi:docname="drawing.svg"
   inkscape:version="1.0 (4035a4f, 2020-05-01)"
   id="svg8"
   version="1.1"
   viewBox="0 0 210 297"
   height="297mm"
   width="210mm">
  <defs
     id="defs2" />
  <sodipodi:namedview
     inkscape:window-maximized="0"
     inkscape:window-y="39"
     inkscape:window-x="657"
     inkscape:window-height="943"
     inkscape:window-width="1252"
     showgrid="false"
     inkscape:document-rotation="0"
     inkscape:current-layer="layer1"
     inkscape:document-units="mm"
     inkscape:cy="380.01164"
     inkscape:cx="494.55167"
     inkscape:zoom="0.98994949"
     inkscape:pageshadow="2"
     inkscape:pageopacity="0.0"
     borderopacity="1.0"
     bordercolor="#666666"
     pagecolor="#ffffff"
     id="base" />
  <metadata
     id="metadata5">
    <rdf:RDF>
      <cc:Work
         rdf:about="">
        <dc:format>image/svg+xml</dc:format>
        <dc:type
           rdf:resource="http://purl.org/dc/dcmitype/StillImage" />
        <dc:title></dc:title>
      </cc:Work>
    </rdf:RDF>
  </metadata>
  <g
     id="layer1"
     inkscape:groupmode="layer"
     inkscape:label="Layer 1">
    <path
       transform="scale(0.26458333)"
       d="M 432.58984 339.26367 C 431.42913 339.33064 430.71456 340.17801 430.35742 341.78516 C 428.92884 348.21374 409.28516 443.57227 409.28516 443.57227 L 408.88672 444.49219 A 25.346481 24.632197 0 0 0 392.85742 438.93945 A 25.346481 24.632197 0 0 0 367.50977 463.57227 A 25.346481 24.632197 0 0 0 392.85742 488.20312 A 25.346481 24.632197 0 0 0 418.20312 463.57227 A 25.346481 24.632197 0 0 0 416.46484 454.60547 L 416.78516 454.28516 L 428.21484 398.92773 C 428.21484 398.92773 432.85742 398.92941 447.85742 406.07227 C 462.85742 413.21512 467.14283 416.78514 470 424.28516 C 472.85713 431.78514 465.71484 447.85742 465.71484 447.85742 C 514.6434 413.92887 476.07143 379.64313 457.5 360.35742 C 443.57143 345.89314 436.07198 339.06278 432.58984 339.26367 z "
       style="fill:#00b7cd;stroke:#ffffff;stroke-width:1.00157481;stroke-linecap:butt;stroke-linejoin:miter;stroke-opacity:1;fill-opacity:1;stroke-miterlimit:4;stroke-dasharray:none"
       id="path24" />
  </g>
</svg>
