<?xml version="1.0" encoding="UTF-8" standalone="no"?>
<!DOCTYPE svg PUBLIC "-//W3C//DTD SVG 1.1//EN" "http://www.w3.org/Graphics/SVG/1.1/DTD/svg11.dtd">
<!-- Created with Vectornator (http://vectornator.io/) -->
<svg height="100%" stroke-miterlimit="10" style="fill-rule:nonzero;clip-rule:evenodd;stroke-linecap:round;stroke-linejoin:round;" version="1.1" viewBox="0 0 1667 1668" width="100%" xml:space="preserve" xmlns="http://www.w3.org/2000/svg" xmlns:vectornator="http://vectornator.io" xmlns:xlink="http://www.w3.org/1999/xlink">
<defs/>
<g id="Layer-1" vectornator:layerName="Layer 1">
<path d="M892 832C892 1007 892 1182 892 1357C1000.5 1357 1109 1357 1217.5 1357C1326 1357 1434.5 1357 1543 1357C1543 1354.67 1543 1352.33 1543 1350C1543 1347.67 1543 1345.33 1543 1343C1436.83 1343 1330.67 1343 1224.5 1343C1118.33 1343 1012.17 1343 906 1343C906 1174.67 906 1006.33 906 838C906 669.667 906 501.333 906 333C1011.33 396.167 1116.67 459.333 1222 522.5C1432.67 648.833 1538.5 711.833 1539.5 711.5C1540.5 711.167 1542 709.167 1544 705.5C1546 701.833 1437.83 634.5 1219.5 503.5C1110.33 438 1001.17 372.5 892 307C892 482 892 657 892 832ZM126 319.5C126 322 126 324.5 126 327C232.167 327 338.333 327 444.5 327C550.667 327 656.833 327 763 327C763 495.333 763 663.667 763 832C763 1000.33 763 1168.67 763 1337C657.833 1273.83 552.667 1210.67 447.5 1147.5C237.167 1021.17 131.333 958.167 130 958.5C128.667 958.833 127 960.833 125 964.5C123 968.167 231.167 1035.33 449.5 1166C558.667 1231.33 667.833 1296.67 777 1362C777 1187 777 1012 777 837C777 662 777 487 777 312C668.5 312 560 312 451.5 312C343 312 234.5 312 126 312C126 314.5 126 317 126 319.5Z" fill="#000000" fill-rule="nonzero" opacity="0" stroke="none" vectornator:layerName="path"/>
<path d="M126 323.617L763 327.49L766.164 1337.69L130 958.5L126 323.617Z" fill="#000000" fill-rule="nonzero" opacity="1" stroke="none"/>
</g>
</svg>
